PathFileType	4	(X/Y/Z)	FAILT01_SDP01_markers.trc
DataRate	CameraRate	NumFrames	NumMarkers	Units	OrigDataRate	OrigDataStartFrame	OrigNumFrames
100	100	4	59	mm	100	1	446
Frame#	Time	RSH			LSH			C7			LELB			LWR			RELB			RWR			RASI			LASI			SACR			P1			P2			P3			LTHLP			LTHLD			LTHAP			LTHAD			LLEPI			LPAT			LTIAP			LTIAD			LTILAT			LLMAL			LHEEL			LMFS			LMFL			LP5MT			LP1MT			LTOE			RTHLP			RTHLD			RTHAP			RTHAD			RLEPI			RPAT			RTIAP			RTIAD			RTILAT			RLMAL			RHEEL			RMFS			RMFL			RP5MT			RP1MT			RTOE			P4			*46			*47			*48			*49			*50			*51			*52			*53			*54			*55			*56			*57			*58			
		X1	Y1	Z1	X2	Y2	Z2	X3	Y3	Z3	X4	Y4	Z4	X5	Y5	Z5	X6	Y6	Z6	X7	Y7	Z7	X8	Y8	Z8	X9	Y9	Z9	X10	Y10	Z10	X11	Y11	Z11	X12	Y12	Z12	X13	Y13	Z13	X14	Y14	Z14	X15	Y15	Z15	X16	Y16	Z16	X17	Y17	Z17	X18	Y18	Z18	X19	Y19	Z19	X20	Y20	Z20	X21	Y21	Z21	X22	Y22	Z22	X23	Y23	Z23	X24	Y24	Z24	X25	Y25	Z25	X26	Y26	Z26	X27	Y27	Z27	X28	Y28	Z28	X29	Y29	Z29	X30	Y30	Z30	X31	Y31	Z31	X32	Y32	Z32	X33	Y33	Z33	X34	Y34	Z34	X35	Y35	Z35	X36	Y36	Z36	X37	Y37	Z37	X38	Y38	Z38	X39	Y39	Z39	X40	Y40	Z40	X41	Y41	Z41	X42	Y42	Z42	X43	Y43	Z43	X44	Y44	Z44	X45	Y45	Z45	X46	Y46	Z46	X47	Y47	Z47	X48	Y48	Z48	X49	Y49	Z49	X50	Y50	Z50	X51	Y51	Z51	X52	Y52	Z52	X53	Y53	Z53	X54	Y54	Z54	X55	Y55	Z55	X56	Y56	Z56	X57	Y57	Z57	X58	Y58	Z58	X59	Y59	Z59
1	        0.0000000000	     -140.9488916397	     1587.4649286270	       65.6838119030	      131.2063634396	     1606.7312955856	      111.9183599949	       -0.6543099880	     1644.9646949768	       19.6414887905	      105.5241525173	     1344.7381258011	      256.9793462753	      -79.4364959002	     1472.0770120621	      207.2183340788	     -163.3731126785	     1386.3623142242	      256.8584382534	       54.8325181007	     1480.4729223251	      245.0861334801	     -121.7405200005	     1151.0326862335	      172.2352206707	       98.6142158508	     1149.2202281952	      191.1046057940	        0.0000000000	     1224.3338823318	        0.0000000000	       51.7485141754	     1223.6198186874	        5.5495798588	      -51.7485141754	     1225.0480651855	       -5.5496096611	        4.8757493496	     1160.9454154968	      -18.7321007252	      171.1793243885	      922.4382042885	      108.2216203213	      155.2444696426	      824.0916728973	       84.6700072289	       85.1728320122	      910.3142619133	      199.2163062096	       77.9246091843	      805.0596117973	      173.8198399544	      142.1822905540	      694.2473649979	       59.1251254082	       70.2138543129	      683.0535531044	      131.7650377750	       71.7473030090	      526.1991024017	       92.4428403378	       61.2239241600	      415.2447879314	       89.0978872776	      131.8252980709	      466.0449028015	       36.4934802055	       93.3147072792	      285.9201133251	       54.0353953838	       45.2300608158	      247.7124780416	       -5.7955086231	       46.2878048420	      280.7643115520	      141.2003189325	       94.3340957165	      253.7554800510	      113.6040091515	      124.6148347855	      218.3255851269	      160.7627123594	       -0.9498298168	      234.3983650208	      186.0599368811	       32.5648188591	      247.3327964544	      233.4250956774	     -191.5244981647	      924.3569970131	       70.0190663338	     -174.9733239412	      821.8472599983	       63.4889304638	     -102.1884828806	      915.3270125389	      187.6057237387	      -97.8470146656	      813.5130405426	      163.0813032389	     -162.9080474377	      702.3261785507	       51.1964261532	      -95.4003781080	      701.4685273170	      130.4108202457	      -97.3634123802	      520.0717449188	       91.0797417164	      -89.9270474911	      418.4705615044	       87.0713889599	     -157.4042290449	      465.1113152504	       34.8280668259	     -126.7531812191	      292.5603687763	       52.0950555801	      -82.8823894262	      254.1933953762	       -1.8559992313	      -89.9168103933	      278.6204218864	      147.6902365685	     -135.3590190411	      253.3158957958	      114.4215166569	     -162.8648489714	      228.0195206404	      166.3281023502	      -39.4233763218	      230.6406050920	      194.0542310476	      -82.5796127319	      248.5651075840	      239.2074465752	        1.2885630131	     1241.8552637100	        6.7194104195	     -109.7537130117	      306.5703511238	       94.8137342930	     -300.7080554962	        0.0000000000	      382.1262419224	     -300.7080554962	        0.0000000000	      382.1262419224	     -300.7080554962	        0.0000000000	      382.1262419224	     -300.7080554962	        0.0000000000	      382.1262419224	     -300.7080554962	        0.0000000000	      382.1262419224	     -300.7080554962	        0.0000000000	      382.1262419224	     -300.7080554962	        0.0000000000	      382.1262419224	     -300.7080554962	        0.0000000000	      382.1262419224	     -300.7080554962	        0.0000000000	      382.1262419224	     -300.7080554962	        0.0000000000	      382.1262419224	     -300.7080554962	        0.0000000000	      382.1262419224	     -300.7080554962	        0.0000000000	      382.1262419224
2	        0.0099999998	     -141.1148607731	     1587.4723196030	       65.7333731651	      131.1024129391	     1606.7750453949	      111.8269562721	       -0.8040964603	     1644.9869871140	       19.5910036564	      105.5351495743	     1344.7477817535	      256.8605542183	      -79.4696509838	     1472.1063375473	      207.2360217571	     -163.1376594305	     1386.5230083466	      256.9895535707	       54.8034012318	     1480.4884195328	      245.0028061867	     -121.7579990625	     1151.0456800461	      172.1737235785	       98.5909104347	     1149.2489576340	      190.9519433975	       -0.1218914986	     1224.3384122849	       -0.1245737076	       51.6352355480	     1223.6342430115	        5.4013133049	      -51.8790185452	     1225.0427007675	       -5.6504309177	        4.7775208950	     1160.9524488449	      -18.8250243664	      171.1352467537	      922.4493503571	      108.0939769745	      155.1916301250	      824.0848779678	       84.5769345760	       85.1907134056	      910.3640913963	      199.1293877363	       77.9319703579	      805.0903677940	      173.7794131041	      142.1302855015	      694.2411661148	       59.1173768044	       70.1665878296	      683.0685734749	      131.7875385284	       71.6794133186	      526.1874794960	       92.4739837646	       61.1899197102	      415.2126014233	       89.1250669956	      131.7885816097	      466.0371840000	       36.5248024464	       93.2917594910	      285.9148085117	       54.0543198586	       45.2131032944	      247.7185726166	       -5.7951807976	       46.3069677353	      280.7898223400	      141.2080973387	       94.3401455879	      253.7726461887	      113.6142313480	      124.6218383312	      218.3027565479	      160.8053296804	       -0.9454190731	      234.4014346600	      186.0623806715	       32.5676500797	      247.3382055759	      233.4233224392	     -191.6055530310	      924.3326187134	       69.9785947800	     -175.0089824200	      821.8410611153	       63.4971857071	     -102.1766364574	      915.3752326965	      187.5922530890	      -97.8943109512	      813.5114312172	      163.0678772926	     -162.9589945078	      702.3175954819	       51.2045919895	      -95.4428613186	      701.4855146408	      130.3849518299	      -97.4038988352	      520.0836062431	       91.0851061344	      -89.9642556906	      418.4767901897	       87.0679914951	     -157.4294716120	      465.1069045067	       34.8270833492	     -126.7528533936	      292.5595343113	       52.0865321159	      -82.8839540482	      254.1887164116	       -1.8572211266	      -89.9198353291	      278.6267399788	      147.6928293705	     -135.3524327278	      253.3121705055	      114.4299209118	     -162.8865003586	      228.0151546001	      166.3156002760	      -39.4116640091	      230.6334227324	      194.0370351076	      -82.5784206390	      248.5690712929	      239.2030656338	        1.1895596981	     1241.8676614761	        6.6286623478	     -109.7538173199	      306.5703511238	       94.8137640953	     -300.7080554962	        0.0000000000	      382.1262419224	     -300.7080554962	        0.0000000000	      382.1262419224	     -300.7080554962	        0.0000000000	      382.1262419224	     -300.7080554962	        0.0000000000	      382.1262419224	     -300.7080554962	        0.0000000000	      382.1262419224	     -300.7080554962	        0.0000000000	      382.1262419224	     -300.7080554962	        0.0000000000	      382.1262419224	     -300.7080554962	        0.0000000000	      382.1262419224	     -300.7080554962	        0.0000000000	      382.1262419224	     -300.7080554962	        0.0000000000	      382.1262419224	     -300.7080554962	        0.0000000000	      382.1262419224	     -300.7080554962	        0.0000000000	      382.1262419224
3	        0.0199999996	     -141.1915272474	     1587.5464677811	       65.7815039158	      131.0163438320	     1606.8106889725	      111.7171049118	       -0.9379982948	     1644.9978351593	       19.5365250111	      105.4843664169	     1344.7711467743	      256.7585110664	      -79.5196145773	     1472.1280336380	      207.2321772575	     -163.3768528700	     1386.4169120789	      256.9675743580	       54.8279881477	     1480.5203676224	      244.9126243591	     -121.7991262674	     1151.0343551636	      172.1130460501	       98.5345542431	     1149.2767333984	      190.8241659403	       -0.2379417419	     1224.3443727493	       -0.2306997776	       51.5189170837	     1223.6373424530	        5.2654743195	      -51.9948452711	     1225.0514030457	       -5.7269334793	        4.6531260014	     1160.9426736832	      -18.9335644245	      171.0888445377	      922.4717020988	      107.9869568348	      155.1519334316	      824.1015076637	       84.5132470131	       85.2274596691	      910.4002714157	      199.0532577038	       77.9382586479	      805.1346540451	      173.7638115883	      142.0798599720	      694.2498683929	       59.1121017933	       70.1473355293	      683.0906867981	      131.7986547947	       71.6312825680	      526.1871218681	       92.4828350544	       61.1495077610	      415.2098000050	       89.1300439835	      131.7057311535	      466.0660326481	       36.4973843098	       93.2902395725	      285.9079539776	       54.0543198586	       45.2167987823	      247.7112561464	       -5.7928562164	       46.2985932827	      280.8548808098	      141.2889510393	       94.3324863911	      253.8086175919	      113.6303842068	      124.6150434017	      218.3255404234	      160.7635617256	       -0.9451806545	      234.4015836716	      186.0638856888	       32.5696766376	      247.3527640104	      233.4398329258	     -191.6541159153	      924.3364334106	       69.9789226055	     -175.0786602497	      821.8433260918	       63.4651482105	     -102.2338271141	      915.3655767441	      187.5372081995	      -97.9602783918	      813.5148882866	      163.0432307720	     -162.9982143641	      702.3026943207	       51.2204468250	      -95.4711586237	      701.5017867088	      130.3944885731	      -97.4249243736	      520.0709104538	       91.0550355911	      -89.9751335382	      418.4754192829	       87.0853662491	     -157.4351042509	      465.0924205780	       34.8589420319	     -126.7808228731	      292.5663292408	       52.0737171173	      -82.8981399536	      254.1738152504	       -1.8543899059	      -89.9123102427	      278.6231338978	      147.6932168007	     -135.3692263365	      253.2921731472	      114.4301593304	     -162.8596484661	      228.0181497335	      166.3334369659	      -39.4259095192	      230.6538671255	      194.0570920706	      -82.5794935226	      248.5656738281	      239.2072379589	        1.0666847229	     1241.8806552887	        6.5112113953	     -109.7901612520	      306.5949380398	       94.7602987289	      128.4294724464	     1607.9574823380	      127.0473599434	     -300.7080554962	        0.0000000000	      382.1262419224	     -300.7080554962	        0.0000000000	      382.1262419224	     -300.7080554962	        0.0000000000	      382.1262419224	     -300.7080554962	        0.0000000000	      382.1262419224	     -300.7080554962	        0.0000000000	      382.1262419224	     -300.7080554962	        0.0000000000	      382.1262419224	     -300.7080554962	        0.0000000000	      382.1262419224	     -300.7080554962	        0.0000000000	      382.1262419224	     -300.7080554962	        0.0000000000	      382.1262419224	     -300.7080554962	        0.0000000000	      382.1262419224	     -300.7080554962	        0.0000000000	      382.1262419224
4	        0.0299999993	     -141.3246691227	     1587.5878334045	       65.8350288868	      130.9180259705	     1606.8511009216	      111.6011440754	       -1.0996162891	     1645.0176239014	       19.4744467735	      105.4971516132	     1344.7893857956	      256.6376626492	      -79.5605778694	     1472.1466302872	      207.2234749794	     -163.4018123150	     1386.4612579346	      257.0189833641	       54.8037886620	     1480.5442094803	      244.8536902666	     -121.8326389790	     1151.0413885117	      172.1085906029	       98.5145866871	     1149.2936611176	      190.6927973032	       -0.3607273102	     1224.3489027023	       -0.3307461739	       51.3901114464	     1223.6531972885	        5.1500797272	      -52.1115660667	     1225.0444889069	       -5.8116018772	        4.5424997807	     1160.9498262405	      -19.0363526344	      171.0552275181	      922.4831461906	      107.8676581383	      155.1050245762	      824.1124153137	       84.4578742981	       85.2335989475	      910.4500412941	      199.0110427141	       77.9532790184	      805.1522374153	      173.7245172262	      142.0384943485	      694.2373514175	       59.1119229794	       70.1208412647	      683.1209063530	      131.8300962448	       71.6021955013	      526.1718630791	       92.4896299839	       61.1404478550	      415.2044653893	       89.1450941563	      131.7252814770	      466.0522043705	       36.5754961967	       93.2763516903	      285.9030961990	       54.0697872639	       45.2000498772	      247.7173209190	       -5.7924985886	       46.2891757488	      280.8172404766	      141.2482559681	       94.3418145180	      253.8059949875	      113.6189699173	      124.5503425598	      218.3170765638	      160.7079356909	       -0.9416043758	      234.4000190496	      186.0714107752	       32.5779020786	      247.3445832729	      233.4347218275	     -191.6998177767	      924.3153333664	       69.9836313725	     -175.1151531935	      821.8099474907	       63.4804368019	     -102.2755205631	      915.3440594673	      187.5189989805	      -97.9984700680	      813.5005831718	      163.0198657513	     -163.0406081676	      702.3026943207	       51.2344241142	      -95.5040901899	      701.4867663383	      130.3672790527	      -97.4433571100	      520.0735926628	       91.0908877850	      -89.9649262428	      418.4585213661	       87.0647132397	     -157.4352830648	      465.0767743587	       34.9203050137	     -126.7818510532	      292.5550043583	       52.0702600479	      -82.8959196806	      254.1660368443	       -1.8566846848	      -89.9090766907	      278.6198854446	      147.6933062077	     -135.3560686111	      253.2851696014	      114.4177913666	     -162.8781408072	      228.0196249485	      166.3348674774	      -39.4252836704	      230.6509017944	      194.0513551235	      -82.5806260109	      248.5530823469	      239.2001301050	        0.9497404099	     1241.8875694275	        6.4331591129	     -109.7566038370	      306.5878152847	       94.7703421116	      128.3743679523	     1608.0116033554	      126.8223822117	     -300.7080554962	        0.0000000000	      382.1262419224	     -300.7080554962	        0.0000000000	      382.1262419224	     -300.7080554962	        0.0000000000	      382.1262419224	     -300.7080554962	        0.0000000000	      382.1262419224	     -300.7080554962	        0.0000000000	      382.1262419224	     -300.7080554962	        0.0000000000	      382.1262419224	     -300.7080554962	        0.0000000000	      382.1262419224	     -300.7080554962	        0.0000000000	      382.1262419224	     -300.7080554962	        0.0000000000	      382.1262419224	     -300.7080554962	        0.0000000000	      382.1262419224	     -300.7080554962	        0.0000000000	      382.1262419224
